<?xml version="1.0" encoding="utf-8"?>
<!-- Generator: Adobe Illustrator 16.0.0, SVG Export Plug-In . SVG Version: 6.00 Build 0)  -->
<!DOCTYPE svg PUBLIC "-//W3C//DTD SVG 1.1//EN" "http://www.w3.org/Graphics/SVG/1.1/DTD/svg11.dtd">
<svg version="1.1" id="Layer_1" xmlns="http://www.w3.org/2000/svg" xmlns:xlink="http://www.w3.org/1999/xlink" x="0px" y="0px"
	  viewBox="0 0 96.949 136.67" enable-background="new 0 0 96.949 136.67" xml:space="preserve">
<polygon points="78.368,102.413 71.648,136.67 33.048,136.67 23.935,102.413 "/>
<path d="M41.699,70.603c-1.2-0.533-22.301-6.2-26.4-11.2S0,52.403,0,52.403c19.2-0.2,27.6,2.5,27.6,2.5
	c12.701,1.5,16.05,15.901,16.05,15.901l0,0l6,5l-0.067-4c0,0-1.667-5.667-1.6-6.133c0.067-0.466-0.2-8.133-0.2-8.133
	S45.05,50.604,41.45,46.47s-6.533-9.869,1.533-26.736c0,0,2.8-4,3.333-8.467S52.981,0,52.981,0s18.933,22.336-2,51.67
	c0,0-1.883,3.101-1.883,5.95s0.787,12.047,1.75,13.25l2.551-3.4c0,0,3.249-14.4,15.95-15.901c0,0,8.399-2.701,27.6-2.499
	c0,0-11.2,2-15.299,7s-25.2,10.667-26.4,11.2c-1.2,0.533-3.9,6.268-3.9,6.268s0.6,14.001,1.6,16.267l29.48-0.035l-1.18,9.234
	l-2.592,0.056L23.85,99.07h-2l-0.933-9.266h30.4l-1.4-10.667c0,0-0.191-1.544-2.6-3.399l-4-3.4L41.699,70.603z"/>
</svg>
